<?xml version="1.0" encoding="utf-8"?>
<!-- Generator: Adobe Illustrator 25.0.1, SVG Export Plug-In . SVG Version: 6.00 Build 0)  -->
<svg version="1.1" id="Capa_1" xmlns="http://www.w3.org/2000/svg" xmlns:xlink="http://www.w3.org/1999/xlink" x="0px" y="0px"
	 viewBox="0 0 738.3 698" style="enable-background:new 0 0 738.3 698;" xml:space="preserve">
<style type="text/css">
	.st0{fill-rule:evenodd;clip-rule:evenodd;fill:#F0E3FF;}
	.st1{fill-rule:evenodd;clip-rule:evenodd;fill:#FFDCD5;}
	.st2{fill-rule:evenodd;clip-rule:evenodd;fill:#713EBA;}
	.st3{fill-rule:evenodd;clip-rule:evenodd;fill:#5651CE;}
	.st4{fill-rule:evenodd;clip-rule:evenodd;fill:#976CFF;}
	.st5{fill-rule:evenodd;clip-rule:evenodd;fill:#BA91DB;}
	.st6{fill:#23007A;}
	.st7{fill:#BA91DB;}
	.st8{fill:#FFDCD5;}
	.st9{fill:#E490B7;}
	.st10{fill:#5651CE;}
	.st11{fill:#F0E3FF;}
	.st12{fill:#976CFF;}
	.st13{fill:#FFFFFF;}
	.st14{fill:#B5A19C;}
	.st15{fill:#FFDCD4;}
	.st16{fill:#395A6E;}
</style>
<g>
	<path class="st13" d="M587.4,279.2c-2.3,0-4.7-0.4-6.9-1.3l-0.1-0.1c-5.4-2.2-52.4-22.4-52.4-63.6c0-23.3,18-42.3,40-42.3
		c6.9,0,13.5,1.8,19.4,5.3c5.9-3.4,12.5-5.3,19.4-5.3c10.3,0,20.1,4.2,27.6,11.8c8,8.2,12.6,19.4,12.4,30.9
		c-0.6,40.7-46.9,61.1-52.2,63.3l-0.1,0.1C592.1,278.7,589.8,279.2,587.4,279.2L587.4,279.2z"/>
	<path class="st13" d="M540.2,157.2c-2.3,0-4.7-0.4-6.9-1.3l-0.1-0.1c-3.8-1.6-37.6-16.1-37.6-46.8c0-18.6,14.5-33.8,32.3-33.8
		c4.3,0,8.5,0.9,12.3,2.5c3.9-1.7,8-2.5,12.3-2.5c8.4,0,16.3,3.4,22.4,9.5c6.4,6.5,10,15.4,9.9,24.5c-0.4,30.3-33.7,44.9-37.5,46.5
		l-0.1,0.1C544.9,156.7,542.6,157.2,540.2,157.2C540.2,157.2,540.2,157.2,540.2,157.2z"/>
	<path class="st13" d="M517.7,338.7c-2.3,0-4.7-0.4-6.9-1.3l-0.2-0.1c-3.8-1.6-37.6-16.1-37.6-46.8c0-18.6,14.5-33.8,32.3-33.8
		c4.3,0,8.5,0.9,12.3,2.5c3.9-1.7,8-2.5,12.3-2.5c8.4,0,16.3,3.4,22.4,9.5c6.4,6.5,10,15.4,9.9,24.5c-0.4,30.3-33.7,44.9-37.4,46.5
		l-0.1,0.1C522.4,338.2,520.1,338.7,517.7,338.7z"/>
	<path class="st13" d="M513.5,609.9c-20.9,0-41.6-5-60.2-14.5H314.8c-15.6,0-28.2-12.7-28.2-28.2v-18.9H211
		c-20.3,0-37.5-15.1-40.1-35.2L137,246.9c-14.5-5-24.9-18.8-24.9-34.8c0-8.3,2.8-16.2,7.8-22.6c-0.2-1.5-0.4-3.1-0.5-4.7
		c-0.5-11.8,3.7-23.1,11.9-31.8c7.5-8,17.5-12.9,28.5-13.9c2.5-9.8,7.4-18.7,14.5-26.3c11.1-11.8,26.2-18.7,42.5-19.4
		c0.9,0,1.8-0.1,2.7-0.1c9.3,0,18.3,2,26.5,5.9c6.4-3.8,13.7-6,21.2-6.3c0.7,0,1.3,0,2,0c15.4,0,29.7,8,37.8,20.7
		c1.2,0,2.4,0,3.6,0.1c7.6-12.7,21.3-21.1,36.6-21.7c0.6,0,1.3,0,1.9,0c3.4,0,6.9,0.4,10.2,1.2c7.9-10.5,20.4-17.2,33.9-17.8
		c0.7,0,1.3,0,1.9,0c19.7,0,36.8,13,42.6,30.9c27.6,5,49,28.4,50.3,56.8c0.3,7.9-0.9,15.7-3.6,23.1c6.9,6.8,10.9,16.2,10.9,26.2
		c0,16-10.4,29.9-24.9,34.8l-13.6,106.4c17.6-8.4,36.9-12.8,56.7-12.8c73.5,0,133.3,60.4,133.3,134.7c0,43.6-21,84.7-56.2,109.9
		c-3.3,2.3-7,3.6-10.8,3.6c0,0,0,0,0,0c-2.4,0-4.7-0.5-6.8-1.4c-3.5,1.9-7.2,3.7-10.9,5.2c-0.4,1.3-0.9,2.5-1.5,3.7
		c-2.4,4.3-6.3,7.3-11.1,8.7C537.7,608.2,525.6,609.9,513.5,609.9z M513.5,463.5c-6.3,0-11.3,5.3-11.3,11.7s5.1,11.7,11.3,11.7
		c6.3,0,11.3-5.3,11.3-11.7S519.7,463.5,513.5,463.5z"/>
</g>
<g>
	<g>
		<g>
			<path class="st12" d="M606.8,190.7c-8.7,0-16.1,5.8-19.4,14c-3.3-8.3-10.7-14-19.4-14c-11.7,0-21.2,10.5-21.2,23.5
				c0,29.7,40.6,46.1,40.6,46.1s40.2-16.6,40.6-46.1C628.1,201.3,618.5,190.7,606.8,190.7z"/>
			<path class="st7" d="M552.5,94.1c-5.5,0-10.2,3.7-12.3,8.9c-2.1-5.3-6.8-8.9-12.3-8.9c-7.4,0-13.5,6.7-13.5,15
				c0,18.9,25.8,29.3,25.8,29.3s25.6-10.6,25.8-29.3C566.1,100.8,559.9,94.1,552.5,94.1z"/>
			<path class="st7" d="M530,275.5c-5.5,0-10.2,3.7-12.3,8.9c-2.1-5.3-6.8-8.9-12.3-8.9c-7.4,0-13.5,6.7-13.5,15
				c0,18.9,25.8,29.3,25.8,29.3s25.6-10.6,25.8-29.3C543.6,282.2,537.4,275.5,530,275.5z"/>
			<g>
				<g>
					<g>
						<g>
							<path class="st8" d="M428.4,207c23.5-1,41.7-20.4,40.7-43.3c-1-22.9-20.8-40.7-44.3-39.7c-1.5,0.1-3,0.2-4.5,0.4
								c0.4-2,0.7-4.1,0.6-6.3c-0.6-13.9-12.6-24.7-26.9-24.1c-14.2,0.6-25.2,12.3-24.7,26.2c-5-6.1-12.7-9.9-21.3-9.5
								c-13.7,0.6-24.5,11.6-24.7,24.8c-5.6-2.3-11.8-3.4-18.3-3.2c-3.6,0.2-7,0.7-10.3,1.7c-1.5-13.1-13.1-23-26.7-22.4
								c-8.4,0.4-15.8,4.7-20.2,11c-8-7-18.7-11.1-30.2-10.6c-23.5,1-41.7,20.4-40.7,43.3c0.1,2,0.3,4,0.7,5.9
								c-4.2-2.5-9.3-3.9-14.6-3.7c-14.2,0.6-25.3,12.4-24.7,26.3c0.6,13.9,12.6,24.7,26.9,24.1L428.4,207z"/>
							<g>
								<g>
									<path class="st7" d="M396.3,529.5H211c-10.9,0-20-8-21.4-18.7l-35.8-280.8h299.7l-35.8,280.8
										C416.4,521.4,407.2,529.5,396.3,529.5L396.3,529.5z"/>
									<path class="st7" d="M413.5,229.9l-35.8,280.8c-1.4,10.7-10.5,18.7-21.4,18.7h40c10.9,0,20-8,21.4-18.7l35.8-280.8H413.5z"
										/>
									<path class="st12" d="M348.7,529.5h-90.1L230,229.9h147.4L348.7,529.5z"/>
								</g>
								<path class="st11" d="M458.4,230H148.9c-9.9,0-18-8.1-18-18v0c0-9.9,8.1-18,18-18h309.5c9.9,0,18,8.1,18,18v0
									C476.4,222,468.4,230,458.4,230z"/>
								<path class="st11" d="M458.4,194.1h-40c9.9,0,18,8.1,18,18v0c0,9.9-8.1,18-18,18h40c9.9,0,18-8.1,18-18v0
									C476.4,202.1,468.4,194.1,458.4,194.1z"/>
							</g>
						</g>
					</g>
					<path class="st13" d="M342,301.2c-17.1,0-31.8,11.4-38.3,27.7c-6.5-16.3-21.2-27.7-38.3-27.7c-23.1,0-41.9,20.8-41.9,46.4
						c0,58.7,80.2,91.1,80.2,91.1s79.4-32.9,80.2-91.1C384.2,322,365.1,301.2,342,301.2L342,301.2z"/>
				</g>
				<g>
					<g>
						<path class="st10" d="M314.8,576.5h170.4V510H314.8c-5.2,0-9.4,4.2-9.4,9.4v47.8C305.4,572.3,309.6,576.5,314.8,576.5z"/>
						<g>
							<path class="st16" d="M385.5,510h15v66.6h-15V510z"/>
							<path class="st16" d="M341.7,510h15v66.6h-15V510z"/>
						</g>
						<g>
							<path class="st11" d="M399,475.2c0,64,51.2,115.9,114.5,115.9s114.5-51.9,114.5-115.9s-51.2-115.9-114.5-115.9
								S399,411.2,399,475.2L399,475.2z M483.3,475.2c0-16.8,13.5-30.5,30.2-30.5c16.6,0,30.2,13.7,30.2,30.5s-13.5,30.5-30.2,30.5
								C496.8,505.7,483.3,492,483.3,475.2z"/>
							<g>
								<path class="st11" d="M513.5,359.3c-6.8,0-13.5,0.6-20,1.8c53.7,9.6,94.5,57,94.5,114.1s-40.8,104.5-94.5,114.1
									c6.5,1.2,13.2,1.8,20,1.8c63.2,0,114.5-51.9,114.5-115.9S576.7,359.3,513.5,359.3L513.5,359.3z"/>
							</g>
							<g>
								<ellipse class="st13" cx="513.3" cy="402.1" rx="15.3" ry="15.5"/>
								<ellipse class="st13" cx="564.5" cy="423.4" rx="15.3" ry="15.5"/>
								<ellipse class="st13" cx="585.8" cy="475" rx="15.3" ry="15.5"/>
								<ellipse class="st13" cx="564.7" cy="526.8" rx="15.3" ry="15.5"/>
								<ellipse class="st13" cx="513.6" cy="548.4" rx="15.3" ry="15.5"/>
								<ellipse class="st13" cx="462.5" cy="527" rx="15.3" ry="15.5"/>
								<ellipse class="st13" cx="441.2" cy="475.4" rx="15.3" ry="15.5"/>
								<ellipse class="st13" cx="462.3" cy="423.6" rx="15.3" ry="15.5"/>
							</g>
						</g>
					</g>
				</g>
			</g>
		</g>
	</g>
	<g>
		<path class="st6" d="M539.3,214.2c0,34.4,43.4,52.3,45.3,53.1c1.9,0.7,3.8,0.7,5.7,0c1.8-0.8,44.8-18.9,45.2-53
			c0.2-16-12.1-31.1-28.7-31.1c-7.3,0-14.2,3-19.4,8.1c-5.2-5.1-12.1-8.1-19.4-8.1C552.1,183.2,539.3,197.1,539.3,214.2z
			 M580.4,207.5c2.5,6.2,11.5,6.2,13.9,0c2.2-5.6,7.1-9.3,12.4-9.3c8.3,0,13.8,8.2,13.7,15.9c-0.3,20.1-24.6,33.8-33.1,38
			c-8.5-4.1-33.1-17.9-33.1-37.9c0-8.8,6.1-16,13.7-16C573.3,198.2,578.1,201.9,580.4,207.5L580.4,207.5z"/>
		<path class="st6" d="M537.4,145.3c1.9,0.7,3.8,0.7,5.7,0c1.2-0.5,30.1-12.7,30.4-36.2c0.2-11.6-9-22.6-21-22.6
			c-4.5,0-8.8,1.6-12.3,4.3c-3.5-2.7-7.8-4.3-12.3-4.3c-11.6,0-21,10.1-21,22.5C506.8,132.7,536.1,144.8,537.4,145.3L537.4,145.3z
			 M527.8,101.6c2.2,0,4.4,1.6,5.4,4.2c2.5,6.2,11.5,6.2,13.9,0c1-2.5,3.1-4.2,5.4-4.2c3.9,0.7,5.9,3.1,6,7.4
			c-0.1,9.7-11.4,17.6-18.3,21.1c-5.8-3-18.3-10.7-18.3-21C521.8,105,524.6,101.6,527.8,101.6z"/>
		<path class="st6" d="M514.9,326.8c1.9,0.7,3.8,0.7,5.7,0c1.2-0.5,30.1-12.7,30.4-36.2c0.2-11.6-9-22.6-21-22.6
			c-4.5,0-8.8,1.6-12.3,4.3c-3.5-2.7-7.8-4.3-12.3-4.3c-11.6,0-21,10.1-21,22.5C484.4,314.2,513.6,326.3,514.9,326.8L514.9,326.8z
			 M505.3,283c2.2,0,4.4,1.6,5.4,4.2c2.5,6.2,11.5,6.2,13.9,0c1-2.5,3.1-4.2,5.4-4.2c3.9,0.7,5.9,3.1,6,7.4
			c-0.1,9.7-11.4,17.6-18.3,21.1c-5.8-3-18.3-10.7-18.3-21C499.4,286.5,502.1,283,505.3,283z"/>
		<path class="st6" d="M513.5,351.8c-26.4,0-50.9,8.5-70.9,23l17.5-137.4c13.3-0.9,23.8-11.9,23.8-25.4c0-9.8-5.6-18.3-13.7-22.6
			c4.5-7.9,6.8-16.9,6.4-26.1c-1.1-25.8-22.5-46.1-48.4-46.9c-1.5-17.3-16.7-30.6-34.6-29.9c-13.3,0.6-24.5,8.8-29.4,20.2
			c-5.1-2.6-10.8-3.9-16.7-3.6c-14.2,0.6-26.1,10-30.3,22.7c-5.5-1.2-11.5-1.4-17.1-0.6c-5-12.9-18-21.7-32.5-21.1
			c-7.9,0.3-15.2,3.3-20.9,8.4c-8.7-5.6-19-8.4-29.6-7.9c-13.3,0.6-25.6,6.2-34.7,15.8c-7.9,8.4-12.4,18.9-13.2,30.1
			c-2.2-0.4-4.5-0.5-6.8-0.4c-8.9,0.4-17,4.1-23.1,10.5c-6.1,6.4-9.2,14.8-8.8,23.6c0.1,2.9,0.6,5.8,1.5,8.5
			c-5.4,4.7-8.9,11.6-8.9,19.3c0,13.5,10.5,24.6,23.8,25.4l34.9,274.2C184,526.1,196.4,537,211,537h86.9v30.2
			c0,9.3,7.6,16.9,16.9,16.9h141.3c17.1,9.3,36.6,14.5,57.4,14.5c11.1,0,22.1-1.5,32.8-4.5c9-2.5,5.4-17.1-4.1-14.4
			c-9.3,2.6-19,3.9-28.7,3.9c-59,0-107-48.6-107-108.4s48-108.4,107-108.4s107,48.6,107,108.4c0,35.1-16.9,68.2-45.2,88.5
			c-7.6,5.5,0.8,17.9,8.7,12.2c32.3-23.1,51.5-60.8,51.5-100.7C635.4,407.2,580.7,351.8,513.5,351.8L513.5,351.8z M148.9,222.5
			c-5.8,0-10.5-4.7-10.5-10.5c0-5.8,4.7-10.5,10.5-10.5h59.5c4.1,0,7.5-3.4,7.5-7.5s-3.4-7.5-7.5-7.5c0,0-61.3,0.1-62.2,0.1
			c-3.5-15.3,14.4-26.8,27.5-19c5.5,3.3,12.4-1.6,11.2-7.8c-2-10.4,1.3-21.5,8.6-29.2c6.3-6.7,15-10.7,24.4-11.1
			c9.2-0.4,18.1,2.7,25,8.7c4.1,2.8,7.8,2.4,11.1-1.3c3.3-4.7,8.5-7.6,14.4-7.8c9.6-0.4,17.9,6.5,18.9,15.7c0.5,4.3,5,7.7,9.5,6.4
			c7.7-2.2,16.1-1.8,23.6,1.2c4.8,2,10.3-1.6,10.3-6.8c0.1-9.4,7.8-17,17.5-17.4c5.9-0.2,11.5,2.3,15.2,6.8c4.4,5.5,13.6,2,13.3-5
			c-0.4-9.7,7.5-17.9,17.5-18.4c10.1-0.4,18.6,7.1,19.1,16.9c0.1,1.4-0.1,2.8-0.4,4.4c-1.1,5,3.3,9.7,8.4,9c1.3-0.2,2.5-0.3,3.7-0.4
			c19.3-0.8,35.7,13.8,36.5,32.5c0.4,8.3-2.3,16.2-7.6,22.6H248.4c-4.1,0-7.5,3.4-7.5,7.5s3.4,7.5,7.5,7.5h210
			c5.8,0,10.5,4.7,10.5,10.5c0,5.8-4.7,10.5-10.5,10.5L148.9,222.5L148.9,222.5z M369.1,237.5l-5.9,61.4c-6.6-3.4-13.8-5.2-21.2-5.2
			c-15.1,0-29.1,7.5-38.3,19.9c-9.2-12.4-23.2-19.9-38.3-19.9c-7.6,0-14.8,1.9-21.2,5.3l-5.9-61.4H369.1z M211,522
			c-7.1,0-13.1-5.2-13.9-12.1l-34.7-272.3h60.8l6.9,72.4c-8.7,9.7-14.1,23-14.1,37.7c0,22.1,10,40.6,23.2,55.4
			c-0.1,0.6-0.1,1.2,0,1.8L250.4,522H211z M341.7,569h-26.9c-1,0-1.9-0.8-1.9-1.9v-47.8c0-1,0.8-1.9,1.9-1.9h26.9V569z M343.8,502.5
			h-29c-9.3,0-16.9,7.6-16.9,16.9v2.6h-32.5l-9.9-103.4c21.3,17.3,43.5,26.5,45.3,27.2c1.9,0.7,3.8,0.7,5.7,0
			c1.8-0.7,24-10.1,45.3-27.6L343.8,502.5z M303.6,430.6c-13.8-6.3-72.6-35.8-72.6-82.9c0-21.5,15.4-38.9,34.4-38.9
			c13.5,0,25.8,9,31.3,23c2.5,6.2,11.5,6.2,13.9,0c5.6-14,17.9-23,31.3-23c20.3,0,34.6,19.7,34.4,38.8
			C375.7,394.2,317.3,424.2,303.6,430.6L303.6,430.6z M385.5,569h-28.8v-51.6h28.8V569z M434.4,569h-33.9v-47.4
			C407.9,540,419.6,556.3,434.4,569z M425.6,389.4c0,0.1,0,0.2,0,0.3c-21.1,22.2-34.1,52.3-34.1,85.5c0,9.4,1,18.5,3,27.3h-35.7
			l9.6-100.4c12.8-14.6,22.6-32.8,22.9-54.4c0.2-14.1-4.9-27.8-14.1-38l6.9-72.2H445L425.6,389.4z"/>
		<path class="st6" d="M551.2,475.2c0-21-16.9-38-37.7-38c-20.8,0-37.7,17.1-37.7,38s16.9,38,37.7,38
			C534.3,513.2,551.2,496.2,551.2,475.2z M513.5,498.2c-12.5,0-22.7-10.3-22.7-23s10.2-23,22.7-23c12.5,0,22.7,10.3,22.7,23
			S526,498.2,513.5,498.2z"/>
		<path class="st6" d="M536.1,402.1c0-12.7-10.2-23-22.8-23c-12.6,0-22.8,10.3-22.8,23s10.2,23,22.8,23
			C525.9,425,536.1,414.7,536.1,402.1z M505.6,402.1c0-4.4,3.5-8,7.8-8c4.3,0,7.8,3.6,7.8,8s-3.5,8-7.8,8
			C509,410,505.6,406.4,505.6,402.1z"/>
		<path class="st6" d="M564.5,400.4c-6.1,0-11.9,2.5-16.1,6.8c-8.8,8.9-8.8,23.5,0,32.4c8.7,8.8,23.5,8.8,32.3,0
			c8.8-8.9,8.8-23.5,0-32.4C576.3,402.8,570.6,400.4,564.5,400.4z M569.9,429c-3.6,3.1-7.3,3.1-10.9,0c-3.1-3.1-3.1-8.2,0-11.3
			c3.6-3.1,7.3-3.1,10.9,0C573,420.8,573,425.9,569.9,429z"/>
		<path class="st6" d="M563,475c0,12.7,10.2,23,22.8,23c12.6,0,22.8-10.3,22.8-23s-10.2-23-22.8-23C573.2,452.1,563,462.4,563,475z
			 M585.8,467.1c4.3,0,7.8,3.6,7.8,8s-3.5,8-7.8,8c-4.3,0-7.8-3.6-7.8-8S581.5,467.1,585.8,467.1z"/>
		<path class="st6" d="M580.8,510.6c-8.7-8.8-23.5-8.8-32.3,0c-8.8,8.9-8.8,23.5,0,32.4c8.8,8.9,23.4,8.9,32.3,0
			C589.6,534.1,589.6,519.6,580.8,510.6z M570.2,532.5c-3.6,3.1-7.3,3.1-10.9,0c-3.1-3.1-3.1-8.2,0-11.3c3.6-3.1,7.3-3.1,10.9,0
			C573.2,524.3,573.2,529.4,570.2,532.5z"/>
		<path class="st6" d="M490.9,548.4c0,12.7,10.2,23,22.8,23s22.8-10.3,22.8-23c0-12.7-10.2-23-22.8-23
			C501.1,525.4,490.9,535.7,490.9,548.4L490.9,548.4z M521.4,548.4c0,4.4-3.5,8-7.8,8c-4.3,0-7.8-3.6-7.8-8c0-4.4,3.5-8,7.8-8
			C517.9,540.4,521.4,544,521.4,548.4z"/>
		<path class="st6" d="M462.5,550c6.1,0,11.8-2.4,16.1-6.8c8.8-8.9,8.8-23.5,0-32.4c-4.3-4.4-10-6.8-16.1-6.8
			c-6.1,0-11.9,2.4-16.1,6.8c-8.8,8.9-8.8,23.5,0,32.4C450.7,547.6,456.4,550,462.5,550z M457,521.4c3.6-3.1,7.3-3.1,10.9,0
			c3.1,3.1,3.1,8.2,0,11.3c-2.8,2.8-8.2,2.8-10.9,0C453.9,529.6,453.9,524.5,457,521.4z"/>
		<path class="st6" d="M418.4,475.4c0,12.7,10.2,23,22.8,23s22.8-10.3,22.8-23s-10.2-23-22.8-23
			C428.6,452.4,418.4,462.7,418.4,475.4z M441.2,467.4c4.3,0,7.8,3.6,7.8,8s-3.5,8-7.8,8c-4.3,0-7.8-3.6-7.8-8
			S436.9,467.4,441.2,467.4z"/>
		<path class="st6" d="M462.3,446.5c6.1,0,11.8-2.4,16.1-6.8c8.8-8.9,8.8-23.5,0-32.4c-4.3-4.4-10-6.8-16.1-6.8
			c-6.1,0-11.9,2.4-16.1,6.8c-8.8,8.9-8.8,23.5,0,32.4C450.4,444.1,456.2,446.5,462.3,446.5z M456.8,417.9c3.6-3.1,7.3-3.1,10.9,0
			c3.1,3.1,3.1,8.2,0,11.3c-3.6,3.1-7.3,3.1-10.9,0C453.7,426.1,453.7,421.1,456.8,417.9z"/>
	</g>
</g>
</svg>
