<?xml version="1.0" encoding="utf-8"?>
<!-- Generator: Adobe Illustrator 25.0.1, SVG Export Plug-In . SVG Version: 6.00 Build 0)  -->
<svg version="1.1" id="Capa_1" xmlns="http://www.w3.org/2000/svg" xmlns:xlink="http://www.w3.org/1999/xlink" x="0px" y="0px"
	 viewBox="0 0 675.4 565.9" style="enable-background:new 0 0 675.4 565.9;" xml:space="preserve">
<style type="text/css">
	.st0{fill:#F0E3FF;}
	.st1{fill-rule:evenodd;clip-rule:evenodd;fill:#F0E3FF;}
	.st2{fill-rule:evenodd;clip-rule:evenodd;fill:#FFDCD5;}
	.st3{fill-rule:evenodd;clip-rule:evenodd;fill:#713EBA;}
	.st4{fill-rule:evenodd;clip-rule:evenodd;fill:#5651CE;}
	.st5{fill-rule:evenodd;clip-rule:evenodd;fill:#976CFF;}
	.st6{fill-rule:evenodd;clip-rule:evenodd;fill:#BA91DB;}
	.st7{fill:#23007A;}
	.st8{fill:#BA91DB;}
	.st9{fill:#FFDCD5;}
	.st10{fill:#E490B7;}
	.st11{fill:#5651CE;}
	.st12{fill:#976CFF;}
	.st13{fill:#FFFFFF;}
	.st14{fill:#B5A19C;}
	.st15{fill:#FFDCD4;}
</style>
<g id="XMLID_1_">
	<g id="XMLID_12_">
		<path id="XMLID_13_" class="st8" d="M529.7,154.6l54,54v288c0,22.1-17.9,40-40,40h-412c-22.1,0-40-17.9-40-40v-288l54-54H529.7z"
			/>
	</g>
	<g id="XMLID_10_">
		<path id="XMLID_11_" class="st8" d="M131.7,536.6h412c11,0,21-4.5,28.3-11.7L419.7,372.6l-0.7,0l-81.7,82.4l-80.9-82l-1.1,0
			L103.4,524.9C110.7,532.1,120.7,536.6,131.7,536.6L131.7,536.6z"/>
	</g>
	<g id="XMLID_8_">
		<path id="XMLID_9_" class="st12" d="M337.3,455.1l246.5-246.4l-54-54h-384l-54,54v0.9L337.3,455.1z"/>
	</g>
	<g id="XMLID_6_">
		<path id="XMLID_7_" class="st0" d="M529.7,260.9V44.6h-384v216.3l191.6,194.1L529.7,260.9z"/>
	</g>
	<g id="XMLID_2_">
		<path id="XMLID_5_" class="st7" d="M590.8,201.5l-51.1-51.1V44.6c0-5.5-4.5-10-10-10H382.4c-5.5,0-10,4.5-10,10s4.5,10,10,10
			h137.3v203.9L337.3,440.9L155.7,259.4V54.6h136.7c5.5,0,10-4.5,10-10s-4.5-10-10-10H145.7c-5.5,0-10,4.5-10,10v105.9l-51.1,51.1
			c-1.9,1.9-2.9,4.4-2.9,7.1v288c0,27.6,22.4,50,50,50h412c27.6,0,50-22.4,50-50v-288C593.7,205.9,592.7,203.4,590.8,201.5z
			 M573.7,496.6c0,4.6-1.1,9-2.9,12.9L433.9,372.6l139.9-139.9V496.6z M539.7,178.7l29.9,29.9l-29.9,29.9V178.7z M104.7,509.5
			c-1.9-3.9-2.9-8.3-2.9-12.9v-263l139.4,139.4L104.7,509.5z M135.7,239.4l-30.3-30.3l30.3-30.3V239.4z M131.7,526.6
			c-4.6,0-9-1.1-12.9-2.9l136.5-136.5l74.9,74.9c1.9,1.9,4.4,2.9,7.1,2.9c2.7,0,5.2-1.1,7.1-2.9l75.4-75.4l136.9,136.9
			c-3.9,1.9-8.3,2.9-12.9,2.9L131.7,526.6L131.7,526.6z"/>
		<path id="XMLID_4_" class="st7" d="M337.4,54.6c2.6,0,5.2-1.1,7.1-2.9c1.9-1.9,2.9-4.4,2.9-7.1c0-2.6-1.1-5.2-2.9-7.1
			s-4.4-2.9-7.1-2.9c-2.6,0-5.2,1.1-7.1,2.9c-1.9,1.9-2.9,4.4-2.9,7.1c0,2.6,1.1,5.2,2.9,7.1C332.2,53.5,334.8,54.6,337.4,54.6z"/>
		<path id="XMLID_3_" class="st7" d="M243.1,155.8c-13.6,24.7-17.1,53.1-10,80c6.1,23.3,19.4,43.5,38.3,58.2
			c18.2,14.2,41,22.4,64,23c0.1,0,0.2,0,0.3,0c5.4,0,9.8-4.3,10-9.7c0.2-5.5-4.2-10.1-9.7-10.3c-39.2-1.1-73.5-28.4-83.5-66.4
			c-12-45.8,13.9-92.8,59-107.2c22.9-7.3,47.2-5.1,68.4,6c21.2,11.2,36.7,29.9,43.6,52.8c4.4,16.7,3,32.2-4.8,51.8
			c-2.2,5.6-9.1,18.6-25.2,18.6c-2.5,0-5.1-1.2-7.2-3.3c-2.9-2.9-4.5-6.9-4.5-11.1v-82.7c0-5.5-4.5-10-10-10c-5.5,0-10,4.5-10,10
			v3.2c-7.8-6.5-17.5-10.2-28.4-10.2c-25.3,0-51.4,21.9-51.4,58.5c0,16.1,5.1,31.3,14.4,42.6c9.4,11.5,22.5,18,35.9,18
			c12.6,0,23.9-5.5,32.5-14.8c1.7,3.9,4.2,7.5,7.2,10.6c5.9,5.9,13.5,9.2,21.4,9.2c23.1,0,37.7-16.1,43.7-31.2
			c9.4-23.6,11.1-43.5,5.5-64.5c0-0.1-0.1-0.2-0.1-0.3c-8.5-28.1-27.5-51.2-53.5-64.9c-26-13.7-55.8-16.3-83.8-7.4
			C278.8,112.9,256.7,131.1,243.1,155.8L243.1,155.8z M332.4,247.8c-16.7,0-30.3-18.2-30.3-40.6c0-24.1,16-38.5,31.4-38.5
			c16.6,0,28.2,15.7,28.2,38.2C361.7,229.4,348.5,247.8,332.4,247.8L332.4,247.8z"/>
	</g>
</g>
</svg>
