<svg id="Layer_1" enable-background="new 0 0 256 256" height="512" viewBox="0 0 256 256" width="512" xmlns="http://www.w3.org/2000/svg"><g><g><path d="m241.65 10.413v166.841c-31.105 0-56.737 23.473-60.106 53.703-.056.614-.13 1.229-.168 1.843-.056.54-.093 1.08-.112 1.638-.019.428-.037.856-.056 1.284-.019.67-.037 1.34-.037 2.01v7.855h-166.821v-7.855c0-125.35 101.969-227.319 227.3-227.319z" fill="#ff4a73"/><path d="m241.65 10.413v1.731c-105.413 12.955-188.731 98.377-198.411 204.777-.651 6.85-.968 13.793-.968 20.811v7.855h-27.921v-7.855c0-125.35 101.969-227.319 227.3-227.319z" fill="#f973a3"/><path d="m241.65 38.223v139.031c-31.105 0-56.737 23.473-60.106 53.703-.056.614-.13 1.229-.168 1.843-.056.54-.093 1.08-.112 1.638-.019.428-.037.856-.056 1.284-.019.67-.037 1.34-.037 2.01v7.855h-139.011v-7.855c0-7.036.372-13.979 1.08-20.811 10.442-100.276 95.435-178.698 198.41-178.698z" fill="#ffa31d"/><path d="m241.65 66.033v111.221c-31.105 0-56.737 23.473-60.106 53.703-.056.614-.13 1.229-.168 1.843-.056.54-.093 1.08-.112 1.638-.019.428-.037.856-.056 1.284-.019.67-.037 1.34-.037 2.01v7.855h-111.22v-7.855c0-6.143.316-12.23.968-18.205 9.102-86.166 82.201-153.494 170.731-153.494z" fill="#f9d335"/><path d="m241.65 93.843v83.411c-31.105 0-56.737 23.473-60.106 53.703-.056.614-.13 1.229-.168 1.843-.056.54-.093 1.08-.112 1.638-.019.428-.037.856-.056 1.284-.019.67-.037 1.34-.037 2.01v7.855h-83.41v-7.855c0-4.226.186-8.414.558-12.546.037-.726.112-1.433.186-2.141 7.39-72.484 68.762-129.202 143.145-129.202z" fill="#44c7b6"/><path d="m241.65 121.634v55.62c-31.105 0-56.737 23.473-60.106 53.703-.056.614-.13 1.229-.168 1.843-.056.54-.093 1.08-.112 1.638-.019.428-.037.856-.056 1.284-.019.67-.037 1.34-.037 2.01v7.855h-55.601v-7.855c0-4.002.205-7.948.596-11.857.019-.075.019-.13.019-.205 6.05-58.375 55.527-104.036 115.465-104.036z" fill="#3193f3"/><path d="m241.65 149.444v27.81c-31.105 0-56.737 23.473-60.106 53.703-.056.614-.13 1.229-.168 1.843-.056.54-.093 1.08-.112 1.638-.019.428-.037.856-.056 1.284-.019.67-.037 1.34-.037 2.01v7.855h-27.81v-7.855c0-3.351.186-6.664.558-9.903 4.934-44.06 42.405-78.385 87.731-78.385z" fill="#a442bc"/><path d="m241.65 38.223v1.954c-90.932 12.788-162.355 87.097-170.732 179.35-.559 5.994-.838 12.062-.838 18.205v7.855h-27.92v-7.855c0-7.036.372-13.979 1.08-20.811 10.442-100.276 95.435-178.698 198.41-178.698z" fill="#f9b04e"/><path d="m241.65 66.033v2.29c-76.729 12.583-136.481 76.189-143.145 154.723-.074.707-.149 1.415-.186 2.141-.298 4.151-.447 8.321-.447 12.546v7.855h-27.921v-7.855c0-6.143.316-12.23.968-18.205 9.102-86.167 82.201-153.495 170.731-153.495z" fill="#f9e27d"/><path d="m241.65 93.843v2.736c-62.191 12.267-110.104 64.722-115.465 129.091 0 .075 0 .13-.019.205-.317 3.909-.484 7.855-.484 11.857v7.855h-27.921v-7.855c0-4.226.186-8.414.558-12.546.037-.726.112-1.433.186-2.141 7.39-72.484 68.762-129.202 143.145-129.202z" fill="#4bdbc3"/><path d="m241.65 121.634v3.388c-47.467 11.764-83.504 52.809-87.73 102.808-.279 3.258-.428 6.571-.428 9.903v7.855h-27.922v-7.855c0-4.002.205-7.948.596-11.857.019-.075.019-.13.019-.205 6.05-58.376 55.527-104.037 115.465-104.037z" fill="#35b1fc"/><path d="m241.65 149.444v4.523c-32.985 11.02-57.37 41.026-60.106 76.989-.056.614-.13 1.229-.168 1.843-.056.54-.093 1.08-.112 1.638-.019.428-.037.856-.056 1.284-.019.67-.037 1.34-.037 2.01v7.855h-27.81v-7.855c0-3.351.186-6.664.558-9.903 4.934-44.059 42.405-78.384 87.731-78.384z" fill="#bd66d3"/></g><path d="m14.35 249.587h166.822c2.209 0 4-1.791 4-4 .208-8.539-.355-2.68.349-14.188 3.186-28.587 27.316-50.146 56.13-50.146 2.209 0 4-1.791 4-4 0-55.18 0-104.271 0-166.841 0-2.209-1.791-4-4-4-127.54 0-231.301 103.77-231.301 231.319v7.855c0 2.21 1.791 4.001 4 4.001zm223.3-76.211c-34.131 2.087-60.479 30.344-60.479 64.356v3.855h-19.81c.045-2.595-.188-7.058.534-13.313 4.627-41.33 38.566-72.813 79.754-74.737v19.839zm0-27.839c-45.267 1.931-82.624 36.464-87.703 81.834-.783 6.79-.539 11.695-.585 14.216h-19.791c.042-2.505-.186-7.617.563-15.175.028-.191.041-.357.046-.491 5.866-55.856 51.697-98.273 107.471-100.218v19.834zm0-27.829c-28.4.943-55.477 11.893-76.629 31.091-20.489 18.595-35.402 44.918-38.835 76.677-.811 8.105-.573 13.635-.615 16.111h-19.811c.002-.105-.046-10.816.724-18.136 7.166-70.28 64.925-123.598 135.166-125.553zm0-27.806c-35.358.952-69.094 14.499-95.386 38.4-29.255 26.595-46.172 64.285-47.936 96.6-.745 8.322-.531 14.224-.568 16.686h-19.81c.048-2.384-.252-10.66.945-21.64 8.889-84.135 78.508-147.904 162.754-149.869v19.823zm0-27.823c-42.165.956-82.45 17-113.836 45.424-32.148 29.114-52.347 68.75-56.872 111.591-1.253 11.504-.945 20.234-.991 22.494h-19.792c.044-2.142-.269-11.419 1.059-24.251 10.258-98.504 91.772-173.107 190.432-175.074zm-219.3 175.653c0-121.801 98.013-221.14 219.301-223.284v19.821c-49.119.961-96.066 19.598-132.593 52.737-42.46 38.522-66.898 92.869-66.898 150.726v3.855h-19.81z" fill="#5f266d"/></g></svg>